<?xml version="1.0" encoding="utf-8"?>
<!-- Generator: Adobe Illustrator 19.2.1, SVG Export Plug-In . SVG Version: 6.00 Build 0)  -->
<svg version="1.1" id="Layer_1" xmlns="http://www.w3.org/2000/svg" xmlns:xlink="http://www.w3.org/1999/xlink" x="0px" y="0px"
	 viewBox="0 0 500 500" style="enable-background:new 0 0 500 500;" xml:space="preserve">
<g>
	<path d="M464.5,106.7c-15.9,7.7-32.7,12.6-50.6,14.9c18.2-11.7,32.2-30.2,38.8-52.3c-17,10.8-35.9,18.5-56,23
		c-16-18.5-39-30-64.2-30c-48.6,0-88,42.4-88,94.8c0,7.4,0.8,14.6,2.2,21.5c-73-3.8-138-41.6-181.4-98.9
		c-7.5,14-11.9,30.2-11.9,47.6c0,32.8,15.5,62,39.2,78.7c-14.5-0.6-28-4.6-39.9-11.8c0,0.4,0,0.9,0,1.3c0,45.8,30.3,84.1,70.6,92.9
		c-7.4,2.1-15.2,3.1-23.3,3.1c-5.7,0-11-0.4-16.5-1.7c11.2,37.8,43.7,65.2,82.2,65.8c-30.1,25.5-68.1,40.5-109.3,40.5
		c-7.1,0-14.2-0.4-21-1.3c38.9,27,85.1,42.7,134.9,42.7c161.9,0,250.4-144.4,250.4-269.6c0-4-0.1-8.1-0.3-12.1
		C437.7,142.4,452.7,125.7,464.5,106.7z"/>
</g>
</svg>
