<?xml version="1.0" encoding="UTF-8"?>
<svg width="500px" height="509px" viewBox="0 0 500 509" version="1.1" xmlns="http://www.w3.org/2000/svg" xmlns:xlink="http://www.w3.org/1999/xlink">
    <!-- Generator: Sketch 39.1 (31720) - http://www.bohemiancoding.com/sketch -->
    <title>Mong-Bang Logo</title>
    <desc>Created with Sketch.</desc>
    <defs>
        <linearGradient x1="116.069365%" y1="133.58462%" x2="116.06937%" y2="0%" id="linearGradient-1">
            <stop stop-color="#0084FF" offset="0%"></stop>
            <stop stop-color="#4AC0CD" offset="100%"></stop>
        </linearGradient>
    </defs>
    <g id="Page-1" stroke="none" stroke-width="1" fill="none" fill-rule="evenodd">
        <g id="Mong-Bang-Logo" fill="url(#linearGradient-1)">
            <path d="M165.291165,264.38253 C165.291165,308.197791 201.531124,343.71988 246.23996,343.71988 C290.943775,343.71988 327.188755,308.197791 327.188755,264.38253 C327.188755,220.567269 290.943775,185.045181 246.23996,185.045181 C201.531124,185.045181 165.291165,220.567269 165.291165,264.38253" id="Fill-57"></path>
            <path d="M357.871486,372.49498 C334.99498,395.235944 325.471888,424.608434 331.014056,447.756024 C306.169679,458.348394 278.785141,464.257028 250.00502,464.257028 L46.064257,464.257028 L46.064257,264.38253 C46.064257,211.792169 66.9176707,163.900602 100.923695,128.182731 C114.824297,136.004016 132.143574,137.670683 147.951807,131.104418 L232.173695,96.1194779 C237.665663,93.8403614 240.235944,87.6204819 237.906627,82.2339357 L236.922691,79.9648594 C234.593373,74.5783133 228.253012,72.063253 222.756024,74.3473896 L164.051205,98.7349398 C159.849398,100.476908 155,98.5542169 153.217871,94.437751 L152.866466,93.6194779 C151.084337,89.503012 153.047189,84.748996 157.248996,83.002008 L215.953815,58.6144578 C221.450803,56.3353414 224.016064,50.1154618 221.686747,44.7339357 C219.116466,38.7901606 212.123494,36.0140562 206.059237,38.5341365 L148.378514,62.4949799 C144.176707,64.2369478 139.327309,62.314257 137.545181,58.1977912 L137.193775,57.3795181 C135.411647,53.2630522 137.374498,48.5090361 141.576305,46.7620482 L199.257028,22.8012048 C205.316265,20.2861446 208.14759,13.4287149 205.582329,7.48493976 L205.466867,7.22891566 C202.901606,1.28514056 195.903614,-1.48594378 189.839357,1.02911647 L106.646586,35.5873494 C84.0913655,44.9548193 71.6365462,68.1124498 75.0050201,90.8684739 C29.2771084,135.140562 0.883534137,196.556225 0.883534137,264.38253 L0.883534137,508.539157 L250.00502,508.539157 C290.818273,508.539157 329.36747,498.860442 363.393574,481.736948 C387.620482,488.805221 419.442771,479.246988 443.549197,455.291165 C475.03012,423.995984 481.370482,380.100402 457.710843,357.233936 C434.056225,334.37249 389.35241,341.204819 357.871486,372.49498" id="Fill-58"></path>
            <path d="M250.00502,20.2259036 C244.563253,20.2259036 239.186747,20.4568273 233.835341,20.8082329 C240.466867,30.7730924 244.35743,42.6506024 244.35743,55.4317269 C244.35743,58.5793173 244.046185,61.6415663 243.594378,64.6636546 C245.727912,64.5883534 247.856426,64.503012 250.00502,64.503012 C362.459839,64.503012 453.945783,154.166667 453.945783,264.38253 C453.945783,286.044177 450.341365,306.88253 443.800201,326.425703 C459.693775,330.336345 473.263052,339.944779 482.058233,352.971888 C493.027108,325.486948 499.126506,295.62751 499.126506,264.38253 C499.126506,129.754016 387.369478,20.2259036 250.00502,20.2259036" id="Fill-59"></path>
        </g>
    </g>
</svg>