<svg xmlns="http://www.w3.org/2000/svg" viewBox="0 0 500 500" enable-background="new 0 0 500 500"><path d="M464.5 106.7c-15.9 7.7-32.7 12.6-50.6 14.9 18.2-11.7 32.2-30.2 38.8-52.3-17 10.8-35.9 18.5-56 23-16-18.5-39-30-64.2-30-48.6 0-88 42.4-88 94.8 0 7.4.8 14.6 2.2 21.5-73-3.8-138-41.6-181.4-98.9-7.5 14-11.9 30.2-11.9 47.6 0 32.8 15.5 62 39.2 78.7-14.5-.6-28-4.6-39.9-11.8v1.3c0 45.8 30.3 84.1 70.6 92.9-7.4 2.1-15.2 3.1-23.3 3.1-5.7 0-11-.4-16.5-1.7 11.2 37.8 43.7 65.2 82.2 65.8-30.1 25.5-68.1 40.5-109.3 40.5-7.1 0-14.2-.4-21-1.3 38.9 27 85.1 42.7 134.9 42.7 161.9 0 250.4-144.4 250.4-269.6 0-4-.1-8.1-.3-12.1 17.3-13.4 32.3-30.1 44.1-49.1z"/></svg>